<svg version="1.1" id="Layer_1" xmlns="http://www.w3.org/2000/svg" xmlns:xlink="http://www.w3.org/1999/xlink" x="0px" y="0px"
	 width="100%" viewBox="0 0 3515 812" enable-background="new 0 0 3515 812" xml:space="preserve">
<path fill="#FFFFFF" opacity="1.000000" stroke="none" 
	d="
M2296.000000,813.000000 
	C1530.666626,813.000000 765.833313,813.000000 1.000000,813.000000 
	C1.000000,542.333313 1.000000,271.666656 1.000000,1.000000 
	C1172.666626,1.000000 2344.333252,1.000000 3516.000000,1.000000 
	C3516.000000,271.666656 3516.000000,542.333313 3516.000000,813.000000 
	C3109.500000,813.000000 2703.000000,813.000000 2296.000000,813.000000 
M2726.138428,390.500000 
	C2726.471191,419.236786 2726.645508,447.976685 2727.204834,476.709076 
	C2727.476807,490.689789 2728.275635,504.669250 2729.198730,518.625244 
	C2729.830566,528.179688 2730.118896,537.920227 2732.288574,547.172424 
	C2735.808594,562.183472 2740.268311,577.023499 2745.207031,591.639893 
	C2751.107178,609.101685 2760.945557,624.625427 2773.125000,638.252808 
	C2781.923096,648.097046 2791.647705,657.105469 2802.978027,664.566345 
	C2816.304932,673.342041 2830.321045,680.236633 2845.058350,685.950928 
	C2872.003662,696.398865 2900.245117,701.325073 2928.727295,704.858459 
	C2942.516357,706.569153 2956.455078,707.172058 2970.344727,707.943726 
	C2981.400391,708.557983 2992.483887,708.684692 3003.555908,708.995911 
	C3016.126465,709.349243 3028.696777,709.745483 3041.269775,709.982788 
	C3062.339844,710.380554 3083.411133,710.827454 3104.483398,710.928467 
	C3114.053711,710.974365 3123.625977,710.188599 3133.200439,709.876770 
	C3145.103271,709.489075 3157.009033,709.174561 3168.914795,708.877380 
	C3183.485352,708.513611 3198.060547,708.303711 3212.627930,707.838867 
	C3229.938721,707.286438 3247.254883,706.745483 3264.545898,705.783569 
	C3273.942383,705.260925 3283.344482,704.222961 3292.648193,702.795227 
	C3305.650146,700.799866 3318.639648,698.579895 3331.498291,695.820984 
	C3358.216309,690.088379 3383.356445,680.372864 3406.108887,664.941711 
	C3418.085938,656.818176 3429.041992,647.484802 3438.094971,636.225830 
	C3446.795654,625.405273 3453.963135,613.586853 3459.996338,600.957581 
	C3468.754395,582.623962 3474.316406,563.350098 3477.777100,543.542480 
	C3480.427246,528.374329 3481.686279,512.927917 3482.881592,497.552185 
	C3483.803467,485.693878 3483.860840,473.754761 3483.953125,461.848816 
	C3484.087402,444.518036 3483.975586,427.184296 3483.846191,409.852753 
	C3483.611816,378.449219 3483.327637,347.045837 3482.960449,315.643646 
	C3482.897217,310.237488 3482.513916,304.816193 3481.935303,299.438812 
	C3480.702637,287.983368 3479.414062,276.528656 3477.829834,265.117859 
	C3476.303223,254.123032 3474.942871,243.055878 3472.501953,232.248001 
	C3468.000732,212.315125 3461.720459,192.936325 3451.929932,174.839890 
	C3445.604248,163.147614 3438.309082,152.197739 3429.012207,142.618851 
	C3421.616699,134.999130 3414.041016,127.673576 3404.638184,122.459473 
	C3394.997314,117.113358 3385.966309,110.306618 3375.809570,106.336105 
	C3360.585693,100.384682 3344.788086,95.640778 3328.905029,91.714211 
	C3314.739990,88.212303 3300.168701,86.242226 3285.700195,84.115875 
	C3275.563721,82.626160 3265.317871,81.707077 3255.087158,81.076172 
	C3239.795410,80.133163 3224.475830,79.138023 3209.165283,79.091499 
	C3144.836426,78.896004 3080.506592,79.007401 3016.177002,79.114212 
	C3007.937988,79.127892 2999.696533,79.707443 2991.462158,80.140488 
	C2973.250244,81.098282 2955.032715,81.988663 2936.835938,83.187439 
	C2926.947266,83.838921 2917.002441,84.513138 2907.252197,86.171844 
	C2894.809570,88.288513 2882.452148,91.071350 2870.209473,94.165634 
	C2840.295654,101.726326 2812.356689,112.988770 2789.038330,134.424866 
	C2780.722412,142.069778 2773.567139,150.354614 2767.125732,159.317505 
	C2754.108154,177.431305 2745.818115,197.780502 2740.935303,219.488907 
	C2737.775635,233.537537 2734.499512,247.588623 2732.160156,261.784424 
	C2730.128906,274.109589 2729.032471,286.616272 2728.086426,299.085449 
	C2727.053711,312.699158 2726.340820,326.355896 2726.084961,340.005035 
	C2725.775635,356.497223 2726.092041,373.001160 2726.138428,390.500000 
M1652.067505,168.669510 
	C1650.714600,172.069412 1649.228149,175.423035 1648.031494,178.877045 
	C1642.287231,195.458130 1638.458008,212.452209 1637.111938,229.983521 
	C1636.135864,242.697784 1634.779785,255.389313 1634.115967,268.118256 
	C1633.809814,273.987793 1634.665527,279.929810 1635.148926,285.826324 
	C1636.400879,301.098297 1637.039429,316.466431 1639.271851,331.597107 
	C1640.940796,342.908356 1643.967896,354.168640 1647.739868,364.980743 
	C1652.039795,377.306366 1658.270508,388.755890 1665.815430,399.654297 
	C1673.686035,411.022980 1683.491577,419.954865 1694.388428,428.019775 
	C1705.430298,436.191956 1717.609131,442.165039 1730.700684,446.186462 
	C1741.961914,449.645660 1753.180664,453.537048 1764.701538,455.783142 
	C1779.273071,458.623932 1794.086914,460.474365 1808.879761,461.855560 
	C1822.961670,463.170349 1837.145264,463.526825 1851.294800,463.951141 
	C1869.193359,464.487854 1887.101929,464.709106 1905.007324,464.989960 
	C1928.410767,465.356995 1951.816406,465.590149 1975.218994,466.001160 
	C1985.293091,466.178040 1995.361450,466.665192 2005.432983,466.996338 
	C2015.837158,467.338409 2026.240112,467.761108 2036.647217,467.960327 
	C2043.976440,468.100647 2051.315186,467.764374 2058.643311,467.925110 
	C2075.872559,468.303009 2093.243408,466.526794 2110.227783,470.946106 
	C2126.656738,475.220947 2138.681152,484.779175 2143.583496,501.335876 
	C2146.408936,510.878845 2147.625732,520.667847 2146.304199,531.034058 
	C2144.601807,544.385925 2134.757080,559.428406 2121.690918,562.900696 
	C2110.086914,565.984375 2098.226318,568.494080 2086.318848,569.936523 
	C2073.615723,571.475342 2060.729980,571.596924 2047.914551,572.095154 
	C2035.016235,572.596619 2022.104736,573.120117 2009.201660,573.059692 
	C1989.795166,572.968750 1970.386597,572.528442 1950.987549,571.946289 
	C1938.172241,571.561707 1925.377563,570.301147 1912.563599,570.107544 
	C1900.268433,569.921814 1888.415161,567.710083 1877.279419,562.873718 
	C1866.448608,558.169861 1857.689209,550.901367 1852.678345,539.512024 
	C1848.840210,530.787720 1846.891113,521.855713 1846.825073,512.478638 
	C1784.182495,512.478638 1721.801147,512.478638 1658.610718,512.478638 
	C1659.124634,527.891907 1659.386597,542.947021 1660.222046,557.970215 
	C1660.688232,566.357544 1661.902222,574.722473 1663.143555,583.043152 
	C1665.172241,596.641785 1670.471436,609.157166 1677.182861,620.995300 
	C1680.377197,626.629517 1685.257812,631.292480 1688.605225,636.858154 
	C1695.685913,648.631348 1706.354858,656.842529 1716.960449,664.695251 
	C1726.888062,672.045776 1737.961548,678.150391 1749.207397,683.335571 
	C1761.021729,688.782776 1773.348755,693.755737 1785.975708,696.650452 
	C1804.120972,700.810120 1822.691772,703.264038 1841.174316,705.750305 
	C1853.796631,707.448181 1866.563110,708.250977 1879.293335,708.920105 
	C1892.512451,709.614929 1905.764893,709.696045 1919.003784,709.993103 
	C1935.241333,710.357483 1951.481079,710.983337 1967.717896,710.925781 
	C1991.290405,710.842163 2014.864136,710.372009 2038.432007,709.835876 
	C2060.410400,709.335815 2082.386230,708.643188 2104.354736,707.816284 
	C2114.339111,707.440430 2124.314453,706.667480 2134.273682,705.834473 
	C2144.158203,705.007751 2154.047607,704.110229 2163.880615,702.826965 
	C2177.302490,701.075256 2190.870361,699.781616 2204.015869,696.737793 
	C2220.716309,692.870789 2237.200928,688.159424 2253.077393,681.168518 
	C2269.969971,673.730225 2284.481934,663.282776 2296.807861,649.996338 
	C2308.692871,637.184998 2316.516602,621.697876 2321.995605,605.078369 
	C2330.224854,580.116028 2332.528320,554.190063 2333.818848,528.213562 
	C2334.474121,515.029480 2333.877441,501.694916 2332.690186,488.532654 
	C2331.535645,475.734039 2329.689697,462.884644 2326.760986,450.382294 
	C2320.216064,422.442078 2307.651611,397.909851 2285.228027,378.836395 
	C2272.989258,368.426147 2259.908691,360.041595 2245.215332,353.571991 
	C2223.925781,344.198151 2201.455078,341.014069 2178.672607,339.062561 
	C2166.728027,338.039398 2154.729004,337.651001 2142.752686,337.007233 
	C2129.945557,336.318756 2117.136963,335.649567 2104.327393,335.004028 
	C2090.686035,334.316620 2077.046631,333.584351 2063.399902,333.026123 
	C2052.166748,332.566650 2040.926025,332.143463 2029.685425,332.032928 
	C1987.283203,331.615814 1944.880127,331.259827 1902.476440,331.042450 
	C1889.039062,330.973541 1876.284790,327.975159 1863.776733,323.392822 
	C1848.469238,317.784943 1837.017090,307.781982 1830.493652,292.879242 
	C1825.216675,280.824158 1825.006226,268.068115 1826.862427,255.061203 
	C1829.001221,240.072968 1836.283081,229.017365 1849.651123,222.024857 
	C1864.984497,214.004288 1881.879028,212.814285 1898.597290,212.054794 
	C1916.057617,211.261597 1933.586670,211.854919 1951.083862,212.025574 
	C1974.987427,212.258713 1998.890381,212.610321 2022.791626,213.021652 
	C2034.032104,213.215103 2045.268188,213.923920 2056.506592,213.935486 
	C2070.463379,213.949844 2084.376953,213.884918 2098.114990,216.953903 
	C2111.236084,219.884995 2123.980957,223.502518 2132.454102,235.053207 
	C2134.999268,238.522858 2137.727539,242.230728 2138.898438,246.257843 
	C2141.263672,254.393677 2142.619629,262.822937 2144.632324,272.257812 
	C2205.572021,272.876404 2267.430176,273.504333 2329.329590,274.132660 
	C2329.615234,272.624420 2329.846924,271.994537 2329.836914,271.368622 
	C2329.530762,252.466141 2329.563721,233.547836 2328.719727,214.668839 
	C2328.304199,205.369858 2327.228271,195.875076 2324.749268,186.941193 
	C2319.781250,169.038788 2312.879883,152.021271 2300.699219,137.289978 
	C2292.577881,127.467758 2283.669922,118.758957 2273.021973,112.153473 
	C2256.786133,102.081955 2239.067871,95.104591 2220.359863,91.118233 
	C2207.339355,88.343758 2194.164551,86.246086 2181.005615,84.183426 
	C2170.444092,82.527870 2159.822266,81.199776 2149.191406,80.060997 
	C2140.413818,79.120773 2131.590820,78.547363 2122.775391,78.031738 
	C2109.473389,77.253677 2096.166504,76.431839 2082.849609,76.071884 
	C2071.527100,75.765839 2060.187256,76.046051 2048.855469,76.136780 
	C2009.288940,76.453552 1969.720947,76.672157 1930.157349,77.213905 
	C1918.175293,77.377975 1906.210938,78.576294 1894.229614,79.101128 
	C1884.000000,79.549232 1873.757812,79.712791 1863.521118,79.996613 
	C1862.521851,80.024315 1861.516846,79.951599 1860.522461,80.028481 
	C1847.476562,81.037010 1834.430420,82.040939 1821.388184,83.095398 
	C1813.914795,83.699615 1806.404419,84.079819 1798.990234,85.124809 
	C1789.280884,86.493294 1779.597046,88.164108 1769.999023,90.168793 
	C1757.963379,92.682617 1745.751343,94.830597 1734.113892,98.653999 
	C1718.660767,103.731026 1703.900757,110.563858 1690.434082,120.081474 
	C1680.030151,127.434410 1671.780762,136.788345 1664.296997,146.737595 
	C1659.468506,153.156616 1656.373779,160.879669 1652.067505,168.669510 
M771.323181,600.996399 
	C772.528687,598.719055 774.033691,596.548767 774.891785,594.147278 
	C781.242737,576.375488 786.410156,558.367737 789.096863,539.548828 
	C791.535400,522.468201 793.182800,505.444458 792.908325,488.210754 
	C792.877808,486.298004 793.617432,484.385498 793.763123,482.455017 
	C794.173401,477.020294 794.460205,471.576263 794.791077,466.210144 
	C730.257080,466.210144 666.307556,466.210144 602.296387,466.210144 
	C601.205017,473.567963 600.765747,480.892883 598.932007,487.850250 
	C596.300964,497.832214 593.777466,508.114624 589.166016,517.236450 
	C582.820679,529.787781 572.083557,538.948425 559.331665,544.804504 
	C544.343628,551.687500 528.065918,554.253235 511.781433,556.028564 
	C501.358826,557.164795 490.850800,557.587158 480.369812,558.097961 
	C470.140167,558.596497 459.893890,559.138794 449.658997,559.068665 
	C422.921631,558.885437 396.185699,558.425598 369.451050,557.967896 
	C362.210724,557.843994 354.973450,557.396912 347.741028,556.988037 
	C336.934357,556.377136 326.086212,556.085266 315.344116,554.873901 
	C306.278412,553.851562 297.220001,552.184509 288.371735,549.955750 
	C276.400085,546.940125 265.387482,541.294067 256.372284,532.947876 
	C247.446609,524.684448 241.717621,514.038940 237.933441,502.349976 
	C232.602844,485.884277 231.128448,468.794189 230.041977,451.759247 
	C228.913971,434.073151 229.027878,416.297394 228.946671,398.559296 
	C228.905182,389.489532 229.722717,380.418976 229.978455,371.343903 
	C230.393646,356.610565 231.022934,341.870178 230.897690,327.138367 
	C230.774658,312.667511 233.897980,298.955292 238.973923,285.604431 
	C246.811752,264.989166 261.319275,251.036606 281.789001,242.929855 
	C300.943024,235.344131 321.183990,234.509521 341.285919,232.959579 
	C352.482391,232.096283 363.755798,231.868790 374.990906,231.938354 
	C404.894440,232.123459 434.796783,232.574203 464.697937,233.029678 
	C474.437714,233.178040 484.180206,233.520599 493.906891,234.044800 
	C502.221283,234.492889 510.516510,235.308319 518.817261,235.996429 
	C533.422485,237.207169 547.246216,241.268478 559.929077,248.524979 
	C572.853271,255.919479 582.596924,266.457397 588.132019,280.482849 
	C591.274780,288.446136 594.146057,296.516571 597.190186,304.674255 
	C661.299927,304.674255 726.030212,304.674255 791.378967,304.674255 
	C790.847534,299.754913 790.336914,295.221100 789.871704,290.682678 
	C788.860291,280.815186 788.174133,270.902893 786.797546,261.087128 
	C785.079773,248.839432 783.568176,236.479584 780.590210,224.510849 
	C775.771851,205.145767 769.216492,186.340790 759.018127,168.945694 
	C749.562927,152.818146 737.521606,138.918365 722.854431,127.585388 
	C707.456177,115.687584 690.001770,107.409607 671.609192,100.859863 
	C651.758789,93.790993 631.296509,89.489944 610.633911,86.181755 
	C595.416687,83.745399 580.009216,82.304008 564.632996,81.109131 
	C549.697266,79.948486 534.694946,79.135811 519.719116,79.091309 
	C455.061737,78.899139 390.403320,79.009804 325.745453,79.114098 
	C318.007019,79.126579 310.272003,79.842331 302.531158,80.109222 
	C291.463959,80.490814 280.391174,80.711594 269.324036,81.094879 
	C263.418335,81.299416 257.477844,81.363304 251.626282,82.084579 
	C239.761932,83.546997 227.855453,84.941841 216.134476,87.226921 
	C199.683136,90.434204 183.110565,93.505150 167.078705,98.276886 
	C134.252609,108.047279 105.350555,124.558640 83.711189,151.907318 
	C73.522888,164.783676 65.292763,178.930374 60.045948,194.515747 
	C55.479595,208.079834 51.350842,221.832352 47.903297,235.718735 
	C45.237759,246.455322 43.647015,257.488678 42.104572,268.464050 
	C40.994240,276.364685 40.767097,284.388367 40.115875,292.354736 
	C39.090427,304.898926 37.631329,317.424194 37.114094,329.988708 
	C36.593674,342.630585 36.909893,355.311310 37.015896,367.973663 
	C37.349911,407.872375 37.717770,447.770905 38.171879,487.668365 
	C38.256172,495.074585 38.606750,502.490845 39.182209,509.875366 
	C39.991283,520.257874 40.563652,530.708435 42.267372,540.958618 
	C44.254025,552.910950 47.003677,564.768799 50.044601,576.506348 
	C55.082924,595.953491 63.532799,613.955627 75.714569,629.930176 
	C81.937172,638.090149 88.781357,645.995850 96.437630,652.783630 
	C104.804482,660.201355 114.106743,666.714050 123.587608,672.691162 
	C138.941299,682.370605 155.835892,688.934143 173.244370,693.805664 
	C185.382080,697.202209 197.825638,699.635071 210.248245,701.849670 
	C223.906235,704.284485 237.659698,706.297363 251.441650,707.886047 
	C261.853790,709.086365 272.368683,709.503418 282.851379,709.955017 
	C295.079895,710.481873 307.322540,710.925598 319.560120,710.954712 
	C366.885254,711.067383 414.211151,711.105408 461.536041,710.948853 
	C480.438873,710.886353 499.339813,710.247925 518.241577,709.869873 
	C533.978027,709.555237 549.715759,709.289551 565.450195,708.892456 
	C570.523743,708.764343 575.617004,708.524292 580.651367,707.920166 
	C590.609253,706.725037 600.547791,705.341858 610.465454,703.845154 
	C619.362549,702.502502 628.363464,701.473755 637.066345,699.297607 
	C654.678955,694.893738 672.012756,689.760803 688.714478,682.210632 
	C706.186890,674.312073 722.319092,664.665894 735.904968,651.302307 
	C744.365234,642.980469 752.079407,633.731689 759.041138,624.112061 
	C763.955444,617.321594 767.045471,609.210876 771.323181,600.996399 
M1360.938232,98.751617 
	C1358.308472,90.483665 1352.368652,88.956299 1344.280396,88.980209 
	C1259.627686,89.230354 1174.973877,89.136345 1090.320435,89.131531 
	C1082.728394,89.131104 1078.608887,92.020592 1076.033325,98.976997 
	C1074.652466,102.707031 1073.082275,106.370895 1071.494019,110.019569 
	C1066.712280,121.004311 1061.838623,131.948990 1057.077881,142.942749 
	C1051.113525,156.715958 1045.262817,170.538452 1039.294434,184.309875 
	C1033.259277,198.235092 1027.096924,212.105225 1021.069824,226.033936 
	C1015.173523,239.660431 1009.419678,253.348587 1003.524475,266.975586 
	C998.766357,277.974213 993.842224,288.900940 989.080383,299.898010 
	C983.116577,313.670898 977.286865,327.501923 971.319153,341.273132 
	C965.284729,355.198212 959.102234,369.059113 953.076843,382.988037 
	C947.184692,396.608917 941.458862,410.301758 935.565918,423.922272 
	C930.805908,434.924194 925.831848,445.833588 921.086975,456.841888 
	C915.209595,470.477814 909.510071,484.190308 903.661255,497.838684 
	C897.500427,512.215210 891.281067,526.566895 885.038025,540.908020 
	C878.150513,556.729614 871.215454,572.530518 864.284973,588.333313 
	C860.564087,596.817810 856.761169,605.266602 853.080627,613.768433 
	C847.053101,627.691772 841.089783,641.642883 835.109497,655.586609 
	C830.076965,667.320251 824.936035,679.009705 820.094177,690.821655 
	C818.116211,695.646973 819.175110,696.870483 824.173157,696.870300 
	C884.997009,696.868103 945.820923,696.869202 1006.644775,696.871094 
	C1012.374207,696.871277 1015.822144,694.462830 1017.945557,689.223816 
	C1021.841064,679.612366 1025.850342,670.047180 1029.771729,660.446106 
	C1037.186768,642.290955 1044.498169,624.093018 1052.001099,605.974243 
	C1056.120361,596.026672 1056.914673,592.756897 1070.900024,592.781311 
	C1167.551392,592.950195 1264.203125,592.870239 1360.854736,592.870239 
	C1364.187500,592.870239 1367.540161,592.639160 1370.848633,592.922791 
	C1376.148315,593.377136 1381.059692,595.988586 1382.817749,600.693726 
	C1393.513794,629.318298 1403.360840,658.262512 1414.236816,686.816040 
	C1417.620972,695.700684 1417.180176,696.982056 1428.268677,696.950623 
	C1486.592407,696.785278 1544.916992,696.870483 1603.241211,696.889282 
	C1605.048706,696.889832 1606.858521,697.240112 1608.663330,697.207703 
	C1611.307739,697.160339 1614.843384,697.860474 1616.319214,696.465088 
	C1617.589233,695.264221 1617.221558,691.298157 1616.339111,689.038574 
	C1613.087769,680.713867 1609.353394,672.576233 1605.742188,664.394043 
	C1598.580566,648.167297 1591.288330,631.997498 1584.218384,615.731018 
	C1575.053955,594.645203 1566.056885,573.486694 1556.981812,552.361938 
	C1548.473145,532.555359 1539.990845,512.737427 1531.435059,492.951172 
	C1521.736938,470.523041 1511.953979,448.131622 1502.238159,425.711151 
	C1493.600952,405.779449 1485.022339,385.822357 1476.386475,365.890106 
	C1466.675171,343.476105 1456.913696,321.083893 1447.202393,298.669891 
	C1438.566284,278.737671 1429.987183,258.780792 1421.349854,238.849060 
	C1411.634155,216.428497 1401.868164,194.029663 1392.147949,171.610962 
	C1381.734619,147.593445 1371.349243,123.563744 1360.938232,98.751617 
M2433.000000,588.500000 
	C2433.000000,605.332458 2433.000000,622.164856 2433.000000,638.997314 
	C2433.000000,657.996521 2432.978516,676.995789 2433.010742,695.994934 
	C2433.023438,703.556763 2436.459473,706.899048 2443.886230,706.898560 
	C2501.383545,706.894836 2558.881104,706.877014 2616.378418,706.982544 
	C2620.613281,706.990295 2622.589600,704.624756 2623.847900,701.360962 
	C2624.639648,699.307800 2624.955078,696.950745 2624.955566,694.729919 
	C2625.003418,494.905090 2625.000000,295.080261 2624.999756,95.255440 
	C2624.999756,94.255486 2625.071777,93.249268 2624.986572,92.256599 
	C2624.479492,86.346802 2620.799805,83.096466 2614.863525,83.097702 
	C2557.199463,83.109726 2499.535156,83.079437 2441.871338,83.193916 
	C2440.059326,83.197517 2437.376221,84.143661 2436.616699,85.499969 
	C2434.905273,88.557060 2433.146729,92.146523 2433.143555,95.521080 
	C2432.979492,259.513916 2433.000000,423.506989 2433.000000,588.500000 
z"/>
<path fill="#003296" opacity="1.000000" stroke="none" 
	d="
M2726.138184,390.000000 
	C2726.092041,373.001160 2725.775635,356.497223 2726.084961,340.005035 
	C2726.340820,326.355896 2727.053711,312.699158 2728.086426,299.085449 
	C2729.032471,286.616272 2730.128906,274.109589 2732.160156,261.784424 
	C2734.499512,247.588623 2737.775635,233.537537 2740.935303,219.488907 
	C2745.818115,197.780502 2754.108154,177.431305 2767.125732,159.317505 
	C2773.567139,150.354614 2780.722412,142.069778 2789.038330,134.424866 
	C2812.356689,112.988770 2840.295654,101.726326 2870.209473,94.165634 
	C2882.452148,91.071350 2894.809570,88.288513 2907.252197,86.171844 
	C2917.002441,84.513138 2926.947266,83.838921 2936.835938,83.187439 
	C2955.032715,81.988663 2973.250244,81.098282 2991.462158,80.140488 
	C2999.696533,79.707443 3007.937988,79.127892 3016.177002,79.114212 
	C3080.506592,79.007401 3144.836426,78.896004 3209.165283,79.091499 
	C3224.475830,79.138023 3239.795410,80.133163 3255.087158,81.076172 
	C3265.317871,81.707077 3275.563721,82.626160 3285.700195,84.115875 
	C3300.168701,86.242226 3314.739990,88.212303 3328.905029,91.714211 
	C3344.788086,95.640778 3360.585693,100.384682 3375.809570,106.336105 
	C3385.966309,110.306618 3394.997314,117.113358 3404.638184,122.459473 
	C3414.041016,127.673576 3421.616699,134.999130 3429.012207,142.618851 
	C3438.309082,152.197739 3445.604248,163.147614 3451.929932,174.839890 
	C3461.720459,192.936325 3468.000732,212.315125 3472.501953,232.248001 
	C3474.942871,243.055878 3476.303223,254.123032 3477.829834,265.117859 
	C3479.414062,276.528656 3480.702637,287.983368 3481.935303,299.438812 
	C3482.513916,304.816193 3482.897217,310.237488 3482.960449,315.643646 
	C3483.327637,347.045837 3483.611816,378.449219 3483.846191,409.852753 
	C3483.975586,427.184296 3484.087402,444.518036 3483.953125,461.848816 
	C3483.860840,473.754761 3483.803467,485.693878 3482.881592,497.552185 
	C3481.686279,512.927917 3480.427246,528.374329 3477.777100,543.542480 
	C3474.316406,563.350098 3468.754395,582.623962 3459.996338,600.957581 
	C3453.963135,613.586853 3446.795654,625.405273 3438.094971,636.225830 
	C3429.041992,647.484802 3418.085938,656.818176 3406.108887,664.941711 
	C3383.356445,680.372864 3358.216309,690.088379 3331.498291,695.820984 
	C3318.639648,698.579895 3305.650146,700.799866 3292.648193,702.795227 
	C3283.344482,704.222961 3273.942383,705.260925 3264.545898,705.783569 
	C3247.254883,706.745483 3229.938721,707.286438 3212.627930,707.838867 
	C3198.060547,708.303711 3183.485352,708.513611 3168.914795,708.877380 
	C3157.009033,709.174561 3145.103271,709.489075 3133.200439,709.876770 
	C3123.625977,710.188599 3114.053711,710.974365 3104.483398,710.928467 
	C3083.411133,710.827454 3062.339844,710.380554 3041.269775,709.982788 
	C3028.696777,709.745483 3016.126465,709.349243 3003.555908,708.995911 
	C2992.483887,708.684692 2981.400391,708.557983 2970.344727,707.943726 
	C2956.455078,707.172058 2942.516357,706.569153 2928.727295,704.858459 
	C2900.245117,701.325073 2872.003662,696.398865 2845.058350,685.950928 
	C2830.321045,680.236633 2816.304932,673.342041 2802.978027,664.566345 
	C2791.647705,657.105469 2781.923096,648.097046 2773.125000,638.252808 
	C2760.945557,624.625427 2751.107178,609.101685 2745.207031,591.639893 
	C2740.268311,577.023499 2735.808594,562.183472 2732.288574,547.172424 
	C2730.118896,537.920227 2729.830566,528.179688 2729.198730,518.625244 
	C2728.275635,504.669250 2727.476807,490.689789 2727.204834,476.709076 
	C2726.645508,447.976685 2726.471191,419.236786 2726.138184,390.000000 
M2916.909180,407.500000 
	C2917.602783,427.136810 2918.279541,446.774200 2918.995361,466.410187 
	C2919.497314,480.175140 2922.082520,493.523560 2926.932617,506.442444 
	C2932.981689,522.554565 2943.372070,534.851440 2958.623291,542.936096 
	C2977.602783,552.997131 2998.475830,555.049500 3019.318848,557.083740 
	C3026.023926,557.738220 3032.784668,557.858948 3039.523682,558.118225 
	C3049.591553,558.505615 3059.665039,559.137268 3069.731934,559.067078 
	C3095.633545,558.886536 3121.533447,558.428406 3147.432129,557.971558 
	C3156.337646,557.814514 3165.258057,557.609497 3174.134521,556.936523 
	C3188.417969,555.853699 3202.854492,555.352356 3216.878906,552.739807 
	C3228.522461,550.570740 3240.185303,546.818237 3250.898926,541.770508 
	C3264.417236,535.401550 3274.193604,524.401001 3279.967285,510.363373 
	C3285.256836,497.504242 3288.357178,484.107452 3289.029053,470.178253 
	C3289.289795,464.772949 3289.759766,459.377197 3289.987549,453.970886 
	C3290.557617,440.443451 3291.043945,426.912476 3291.531738,414.218201 
	C3289.341309,413.012756 3288.192139,412.380249 3287.042725,411.747772 
	C3287.785156,410.798523 3288.646240,409.916107 3289.231201,408.878265 
	C3289.670654,408.098816 3289.989990,407.113098 3289.965576,406.230316 
	C3288.998779,371.457947 3292.931152,336.489624 3286.049072,301.956177 
	C3283.285645,288.090515 3277.694092,275.121185 3268.843018,264.300140 
	C3260.068115,253.572067 3248.260742,246.545044 3234.926025,241.774033 
	C3216.615234,235.222595 3197.549316,234.579498 3178.592773,232.962479 
	C3168.236816,232.079086 3157.792725,231.869049 3147.392090,231.936691 
	C3116.825195,232.135391 3086.257324,232.472397 3055.695801,233.065216 
	C3040.550781,233.358994 3025.395264,234.012665 3010.289307,235.114395 
	C3000.652588,235.817215 2990.966553,237.039673 2981.536133,239.098007 
	C2966.926514,242.286758 2953.601562,248.661575 2943.007568,259.453918 
	C2933.137939,269.508942 2926.969482,281.882385 2922.934082,295.324463 
	C2917.622314,313.017365 2917.666992,331.356659 2917.017090,349.518921 
	C2916.338135,368.489594 2916.893555,387.504456 2916.909180,407.500000 
z"/>
<path fill="#003296" opacity="1.000000" stroke="none" 
	d="
M1652.284668,168.343903 
	C1656.373779,160.879669 1659.468506,153.156616 1664.296997,146.737595 
	C1671.780762,136.788345 1680.030151,127.434410 1690.434082,120.081474 
	C1703.900757,110.563858 1718.660767,103.731026 1734.113892,98.653999 
	C1745.751343,94.830597 1757.963379,92.682617 1769.999023,90.168793 
	C1779.597046,88.164108 1789.280884,86.493294 1798.990234,85.124809 
	C1806.404419,84.079819 1813.914795,83.699615 1821.388184,83.095398 
	C1834.430420,82.040939 1847.476562,81.037010 1860.522461,80.028481 
	C1861.516846,79.951599 1862.521851,80.024315 1863.521118,79.996613 
	C1873.757812,79.712791 1884.000000,79.549232 1894.229614,79.101128 
	C1906.210938,78.576294 1918.175293,77.377975 1930.157349,77.213905 
	C1969.720947,76.672157 2009.288940,76.453552 2048.855469,76.136780 
	C2060.187256,76.046051 2071.527100,75.765839 2082.849609,76.071884 
	C2096.166504,76.431839 2109.473389,77.253677 2122.775391,78.031738 
	C2131.590820,78.547363 2140.413818,79.120773 2149.191406,80.060997 
	C2159.822266,81.199776 2170.444092,82.527870 2181.005615,84.183426 
	C2194.164551,86.246086 2207.339355,88.343758 2220.359863,91.118233 
	C2239.067871,95.104591 2256.786133,102.081955 2273.021973,112.153473 
	C2283.669922,118.758957 2292.577881,127.467758 2300.699219,137.289978 
	C2312.879883,152.021271 2319.781250,169.038788 2324.749268,186.941193 
	C2327.228271,195.875076 2328.304199,205.369858 2328.719727,214.668839 
	C2329.563721,233.547836 2329.530762,252.466141 2329.836914,271.368622 
	C2329.846924,271.994537 2329.615234,272.624420 2329.329590,274.132660 
	C2267.430176,273.504333 2205.572021,272.876404 2144.632324,272.257812 
	C2142.619629,262.822937 2141.263672,254.393677 2138.898438,246.257843 
	C2137.727539,242.230728 2134.999268,238.522858 2132.454102,235.053207 
	C2123.980957,223.502518 2111.236084,219.884995 2098.114990,216.953903 
	C2084.376953,213.884918 2070.463379,213.949844 2056.506592,213.935486 
	C2045.268188,213.923920 2034.032104,213.215103 2022.791626,213.021652 
	C1998.890381,212.610321 1974.987427,212.258713 1951.083862,212.025574 
	C1933.586670,211.854919 1916.057617,211.261597 1898.597290,212.054794 
	C1881.879028,212.814285 1864.984497,214.004288 1849.651123,222.024857 
	C1836.283081,229.017365 1829.001221,240.072968 1826.862427,255.061203 
	C1825.006226,268.068115 1825.216675,280.824158 1830.493652,292.879242 
	C1837.017090,307.781982 1848.469238,317.784943 1863.776733,323.392822 
	C1876.284790,327.975159 1889.039062,330.973541 1902.476440,331.042450 
	C1944.880127,331.259827 1987.283203,331.615814 2029.685425,332.032928 
	C2040.926025,332.143463 2052.166748,332.566650 2063.399902,333.026123 
	C2077.046631,333.584351 2090.686035,334.316620 2104.327393,335.004028 
	C2117.136963,335.649567 2129.945557,336.318756 2142.752686,337.007233 
	C2154.729004,337.651001 2166.728027,338.039398 2178.672607,339.062561 
	C2201.455078,341.014069 2223.925781,344.198151 2245.215332,353.571991 
	C2259.908691,360.041595 2272.989258,368.426147 2285.228027,378.836395 
	C2307.651611,397.909851 2320.216064,422.442078 2326.760986,450.382294 
	C2329.689697,462.884644 2331.535645,475.734039 2332.690186,488.532654 
	C2333.877441,501.694916 2334.474121,515.029480 2333.818848,528.213562 
	C2332.528320,554.190063 2330.224854,580.116028 2321.995605,605.078369 
	C2316.516602,621.697876 2308.692871,637.184998 2296.807861,649.996338 
	C2284.481934,663.282776 2269.969971,673.730225 2253.077393,681.168518 
	C2237.200928,688.159424 2220.716309,692.870789 2204.015869,696.737793 
	C2190.870361,699.781616 2177.302490,701.075256 2163.880615,702.826965 
	C2154.047607,704.110229 2144.158203,705.007751 2134.273682,705.834473 
	C2124.314453,706.667480 2114.339111,707.440430 2104.354736,707.816284 
	C2082.386230,708.643188 2060.410400,709.335815 2038.432007,709.835876 
	C2014.864136,710.372009 1991.290405,710.842163 1967.717896,710.925781 
	C1951.481079,710.983337 1935.241333,710.357483 1919.003784,709.993103 
	C1905.764893,709.696045 1892.512451,709.614929 1879.293335,708.920105 
	C1866.563110,708.250977 1853.796631,707.448181 1841.174316,705.750305 
	C1822.691772,703.264038 1804.120972,700.810120 1785.975708,696.650452 
	C1773.348755,693.755737 1761.021729,688.782776 1749.207397,683.335571 
	C1737.961548,678.150391 1726.888062,672.045776 1716.960449,664.695251 
	C1706.354858,656.842529 1695.685913,648.631348 1688.605225,636.858154 
	C1685.257812,631.292480 1680.377197,626.629517 1677.182861,620.995300 
	C1670.471436,609.157166 1665.172241,596.641785 1663.143555,583.043152 
	C1661.902222,574.722473 1660.688232,566.357544 1660.222046,557.970215 
	C1659.386597,542.947021 1659.124634,527.891907 1658.610718,512.478638 
	C1721.801147,512.478638 1784.182495,512.478638 1846.825073,512.478638 
	C1846.891113,521.855713 1848.840210,530.787720 1852.678345,539.512024 
	C1857.689209,550.901367 1866.448608,558.169861 1877.279419,562.873718 
	C1888.415161,567.710083 1900.268433,569.921814 1912.563599,570.107544 
	C1925.377563,570.301147 1938.172241,571.561707 1950.987549,571.946289 
	C1970.386597,572.528442 1989.795166,572.968750 2009.201660,573.059692 
	C2022.104736,573.120117 2035.016235,572.596619 2047.914551,572.095154 
	C2060.729980,571.596924 2073.615723,571.475342 2086.318848,569.936523 
	C2098.226318,568.494080 2110.086914,565.984375 2121.690918,562.900696 
	C2134.757080,559.428406 2144.601807,544.385925 2146.304199,531.034058 
	C2147.625732,520.667847 2146.408936,510.878845 2143.583496,501.335876 
	C2138.681152,484.779175 2126.656738,475.220947 2110.227783,470.946106 
	C2093.243408,466.526794 2075.872559,468.303009 2058.643311,467.925110 
	C2051.315186,467.764374 2043.976440,468.100647 2036.647217,467.960327 
	C2026.240112,467.761108 2015.837158,467.338409 2005.432983,466.996338 
	C1995.361450,466.665192 1985.293091,466.178040 1975.218994,466.001160 
	C1951.816406,465.590149 1928.410767,465.356995 1905.007324,464.989960 
	C1887.101929,464.709106 1869.193359,464.487854 1851.294800,463.951141 
	C1837.145264,463.526825 1822.961670,463.170349 1808.879761,461.855560 
	C1794.086914,460.474365 1779.273071,458.623932 1764.701538,455.783142 
	C1753.180664,453.537048 1741.961914,449.645660 1730.700684,446.186462 
	C1717.609131,442.165039 1705.430298,436.191956 1694.388428,428.019775 
	C1683.491577,419.954865 1673.686035,411.022980 1665.815430,399.654297 
	C1658.270508,388.755890 1652.039795,377.306366 1647.739868,364.980743 
	C1643.967896,354.168640 1640.940796,342.908356 1639.271851,331.597107 
	C1637.039429,316.466431 1636.400879,301.098297 1635.148926,285.826324 
	C1634.665527,279.929810 1633.809814,273.987793 1634.115967,268.118256 
	C1634.779785,255.389313 1636.135864,242.697784 1637.111938,229.983521 
	C1638.458008,212.452209 1642.287231,195.458130 1648.031494,178.877045 
	C1649.228149,175.423035 1650.714600,172.069412 1652.284668,168.343903 
z"/>
<path fill="#003296" opacity="1.000000" stroke="none" 
	d="
M771.136536,601.343018 
	C767.045471,609.210876 763.955444,617.321594 759.041138,624.112061 
	C752.079407,633.731689 744.365234,642.980469 735.904968,651.302307 
	C722.319092,664.665894 706.186890,674.312073 688.714478,682.210632 
	C672.012756,689.760803 654.678955,694.893738 637.066345,699.297607 
	C628.363464,701.473755 619.362549,702.502502 610.465454,703.845154 
	C600.547791,705.341858 590.609253,706.725037 580.651367,707.920166 
	C575.617004,708.524292 570.523743,708.764343 565.450195,708.892456 
	C549.715759,709.289551 533.978027,709.555237 518.241577,709.869873 
	C499.339813,710.247925 480.438873,710.886353 461.536041,710.948853 
	C414.211151,711.105408 366.885254,711.067383 319.560120,710.954712 
	C307.322540,710.925598 295.079895,710.481873 282.851379,709.955017 
	C272.368683,709.503418 261.853790,709.086365 251.441650,707.886047 
	C237.659698,706.297363 223.906235,704.284485 210.248245,701.849670 
	C197.825638,699.635071 185.382080,697.202209 173.244370,693.805664 
	C155.835892,688.934143 138.941299,682.370605 123.587608,672.691162 
	C114.106743,666.714050 104.804482,660.201355 96.437630,652.783630 
	C88.781357,645.995850 81.937172,638.090149 75.714569,629.930176 
	C63.532799,613.955627 55.082924,595.953491 50.044601,576.506348 
	C47.003677,564.768799 44.254025,552.910950 42.267372,540.958618 
	C40.563652,530.708435 39.991283,520.257874 39.182209,509.875366 
	C38.606750,502.490845 38.256172,495.074585 38.171879,487.668365 
	C37.717770,447.770905 37.349911,407.872375 37.015896,367.973663 
	C36.909893,355.311310 36.593674,342.630585 37.114094,329.988708 
	C37.631329,317.424194 39.090427,304.898926 40.115875,292.354736 
	C40.767097,284.388367 40.994240,276.364685 42.104572,268.464050 
	C43.647015,257.488678 45.237759,246.455322 47.903297,235.718735 
	C51.350842,221.832352 55.479595,208.079834 60.045948,194.515747 
	C65.292763,178.930374 73.522888,164.783676 83.711189,151.907318 
	C105.350555,124.558640 134.252609,108.047279 167.078705,98.276886 
	C183.110565,93.505150 199.683136,90.434204 216.134476,87.226921 
	C227.855453,84.941841 239.761932,83.546997 251.626282,82.084579 
	C257.477844,81.363304 263.418335,81.299416 269.324036,81.094879 
	C280.391174,80.711594 291.463959,80.490814 302.531158,80.109222 
	C310.272003,79.842331 318.007019,79.126579 325.745453,79.114098 
	C390.403320,79.009804 455.061737,78.899139 519.719116,79.091309 
	C534.694946,79.135811 549.697266,79.948486 564.632996,81.109131 
	C580.009216,82.304008 595.416687,83.745399 610.633911,86.181755 
	C631.296509,89.489944 651.758789,93.790993 671.609192,100.859863 
	C690.001770,107.409607 707.456177,115.687584 722.854431,127.585388 
	C737.521606,138.918365 749.562927,152.818146 759.018127,168.945694 
	C769.216492,186.340790 775.771851,205.145767 780.590210,224.510849 
	C783.568176,236.479584 785.079773,248.839432 786.797546,261.087128 
	C788.174133,270.902893 788.860291,280.815186 789.871704,290.682678 
	C790.336914,295.221100 790.847534,299.754913 791.378967,304.674255 
	C726.030212,304.674255 661.299927,304.674255 597.190186,304.674255 
	C594.146057,296.516571 591.274780,288.446136 588.132019,280.482849 
	C582.596924,266.457397 572.853271,255.919479 559.929077,248.524979 
	C547.246216,241.268478 533.422485,237.207169 518.817261,235.996429 
	C510.516510,235.308319 502.221283,234.492889 493.906891,234.044800 
	C484.180206,233.520599 474.437714,233.178040 464.697937,233.029678 
	C434.796783,232.574203 404.894440,232.123459 374.990906,231.938354 
	C363.755798,231.868790 352.482391,232.096283 341.285919,232.959579 
	C321.183990,234.509521 300.943024,235.344131 281.789001,242.929855 
	C261.319275,251.036606 246.811752,264.989166 238.973923,285.604431 
	C233.897980,298.955292 230.774658,312.667511 230.897690,327.138367 
	C231.022934,341.870178 230.393646,356.610565 229.978455,371.343903 
	C229.722717,380.418976 228.905182,389.489532 228.946671,398.559296 
	C229.027878,416.297394 228.913971,434.073151 230.041977,451.759247 
	C231.128448,468.794189 232.602844,485.884277 237.933441,502.349976 
	C241.717621,514.038940 247.446609,524.684448 256.372284,532.947876 
	C265.387482,541.294067 276.400085,546.940125 288.371735,549.955750 
	C297.220001,552.184509 306.278412,553.851562 315.344116,554.873901 
	C326.086212,556.085266 336.934357,556.377136 347.741028,556.988037 
	C354.973450,557.396912 362.210724,557.843994 369.451050,557.967896 
	C396.185699,558.425598 422.921631,558.885437 449.658997,559.068665 
	C459.893890,559.138794 470.140167,558.596497 480.369812,558.097961 
	C490.850800,557.587158 501.358826,557.164795 511.781433,556.028564 
	C528.065918,554.253235 544.343628,551.687500 559.331665,544.804504 
	C572.083557,538.948425 582.820679,529.787781 589.166016,517.236450 
	C593.777466,508.114624 596.300964,497.832214 598.932007,487.850250 
	C600.765747,480.892883 601.205017,473.567963 602.296387,466.210144 
	C666.307556,466.210144 730.257080,466.210144 794.791077,466.210144 
	C794.460205,471.576263 794.173401,477.020294 793.763123,482.455017 
	C793.617432,484.385498 792.877808,486.298004 792.908325,488.210754 
	C793.182800,505.444458 791.535400,522.468201 789.096863,539.548828 
	C786.410156,558.367737 781.242737,576.375488 774.891785,594.147278 
	C774.033691,596.548767 772.528687,598.719055 771.136536,601.343018 
z"/>
<path fill="#013296" opacity="1.000000" stroke="none" 
	d="
M1360.944946,99.145485 
	C1371.349243,123.563744 1381.734619,147.593445 1392.147949,171.610962 
	C1401.868164,194.029663 1411.634155,216.428497 1421.349854,238.849060 
	C1429.987183,258.780792 1438.566284,278.737671 1447.202393,298.669891 
	C1456.913696,321.083893 1466.675171,343.476105 1476.386475,365.890106 
	C1485.022339,385.822357 1493.600952,405.779449 1502.238159,425.711151 
	C1511.953979,448.131622 1521.736938,470.523041 1531.435059,492.951172 
	C1539.990845,512.737427 1548.473145,532.555359 1556.981812,552.361938 
	C1566.056885,573.486694 1575.053955,594.645203 1584.218384,615.731018 
	C1591.288330,631.997498 1598.580566,648.167297 1605.742188,664.394043 
	C1609.353394,672.576233 1613.087769,680.713867 1616.339111,689.038574 
	C1617.221558,691.298157 1617.589233,695.264221 1616.319214,696.465088 
	C1614.843384,697.860474 1611.307739,697.160339 1608.663330,697.207703 
	C1606.858521,697.240112 1605.048706,696.889832 1603.241211,696.889282 
	C1544.916992,696.870483 1486.592407,696.785278 1428.268677,696.950623 
	C1417.180176,696.982056 1417.620972,695.700684 1414.236816,686.816040 
	C1403.360840,658.262512 1393.513794,629.318298 1382.817749,600.693726 
	C1381.059692,595.988586 1376.148315,593.377136 1370.848633,592.922791 
	C1367.540161,592.639160 1364.187500,592.870239 1360.854736,592.870239 
	C1264.203125,592.870239 1167.551392,592.950195 1070.900024,592.781311 
	C1056.914673,592.756897 1056.120361,596.026672 1052.001099,605.974243 
	C1044.498169,624.093018 1037.186768,642.290955 1029.771729,660.446106 
	C1025.850342,670.047180 1021.841064,679.612366 1017.945557,689.223816 
	C1015.822144,694.462830 1012.374207,696.871277 1006.644775,696.871094 
	C945.820923,696.869202 884.997009,696.868103 824.173157,696.870300 
	C819.175110,696.870483 818.116211,695.646973 820.094177,690.821655 
	C824.936035,679.009705 830.076965,667.320251 835.109497,655.586609 
	C841.089783,641.642883 847.053101,627.691772 853.080627,613.768433 
	C856.761169,605.266602 860.564087,596.817810 864.284973,588.333313 
	C871.215454,572.530518 878.150513,556.729614 885.038025,540.908020 
	C891.281067,526.566895 897.500427,512.215210 903.661255,497.838684 
	C909.510071,484.190308 915.209595,470.477814 921.086975,456.841888 
	C925.831848,445.833588 930.805908,434.924194 935.565918,423.922272 
	C941.458862,410.301758 947.184692,396.608917 953.076843,382.988037 
	C959.102234,369.059113 965.284729,355.198212 971.319153,341.273132 
	C977.286865,327.501923 983.116577,313.670898 989.080383,299.898010 
	C993.842224,288.900940 998.766357,277.974213 1003.524475,266.975586 
	C1009.419678,253.348587 1015.173523,239.660431 1021.069824,226.033936 
	C1027.096924,212.105225 1033.259277,198.235092 1039.294434,184.309875 
	C1045.262817,170.538452 1051.113525,156.715958 1057.077881,142.942749 
	C1061.838623,131.948990 1066.712280,121.004311 1071.494019,110.019569 
	C1073.082275,106.370895 1074.652466,102.707031 1076.033325,98.976997 
	C1078.608887,92.020592 1082.728394,89.131104 1090.320435,89.131531 
	C1174.973877,89.136345 1259.627686,89.230354 1344.280396,88.980209 
	C1352.368652,88.956299 1358.308472,90.483665 1360.944946,99.145485 
M1271.530273,313.003204 
	C1271.269531,312.079163 1271.081543,311.127045 1270.737427,310.235229 
	C1263.566040,291.651886 1256.369995,273.078094 1249.195068,254.496155 
	C1245.351074,244.540771 1242.727539,234.047302 1235.062500,225.904099 
	C1230.027710,220.555084 1223.957275,216.519150 1216.881470,217.218887 
	C1208.744263,218.023544 1201.595337,222.249344 1197.975952,230.318329 
	C1192.170532,243.261032 1186.250488,256.169708 1181.005615,269.342316 
	C1173.344360,288.583221 1166.301880,308.069550 1158.875000,327.404907 
	C1152.984009,342.741394 1146.835327,357.978882 1140.941284,373.314209 
	C1134.198975,390.856354 1127.643066,408.469971 1120.946045,426.029633 
	C1116.303589,438.201996 1111.559570,450.335541 1106.722656,462.843597 
	C1180.737793,462.843597 1254.267212,462.843597 1328.098755,462.843597 
	C1327.512573,461.016541 1327.098877,459.482361 1326.534668,458.005615 
	C1318.463013,436.877808 1310.359741,415.762024 1302.287109,394.634583 
	C1295.863892,377.823914 1289.411621,361.023956 1283.089111,344.175385 
	C1279.286743,334.042542 1275.708618,323.825500 1271.530273,313.003204 
z"/>
<path fill="#003296" opacity="1.000000" stroke="none" 
	d="
M2433.000000,588.000000 
	C2433.000000,423.506989 2432.979492,259.513916 2433.143555,95.521080 
	C2433.146729,92.146523 2434.905273,88.557060 2436.616699,85.499969 
	C2437.376221,84.143661 2440.059326,83.197517 2441.871338,83.193916 
	C2499.535156,83.079437 2557.199463,83.109726 2614.863525,83.097702 
	C2620.799805,83.096466 2624.479492,86.346802 2624.986572,92.256599 
	C2625.071777,93.249268 2624.999756,94.255486 2624.999756,95.255440 
	C2625.000000,295.080261 2625.003418,494.905090 2624.955566,694.729919 
	C2624.955078,696.950745 2624.639648,699.307800 2623.847900,701.360962 
	C2622.589600,704.624756 2620.613281,706.990295 2616.378418,706.982544 
	C2558.881104,706.877014 2501.383545,706.894836 2443.886230,706.898560 
	C2436.459473,706.899048 2433.023438,703.556763 2433.010742,695.994934 
	C2432.978516,676.995789 2433.000000,657.996521 2433.000000,638.997314 
	C2433.000000,622.164856 2433.000000,605.332458 2433.000000,588.000000 
z"/>
<path fill="#FFFFFF" opacity="1.000000" stroke="none" 
	d="
M2916.909180,407.000000 
	C2916.893555,387.504456 2916.338135,368.489594 2917.017090,349.518921 
	C2917.666992,331.356659 2917.622314,313.017365 2922.934082,295.324463 
	C2926.969482,281.882385 2933.137939,269.508942 2943.007568,259.453918 
	C2953.601562,248.661575 2966.926514,242.286758 2981.536133,239.098007 
	C2990.966553,237.039673 3000.652588,235.817215 3010.289307,235.114395 
	C3025.395264,234.012665 3040.550781,233.358994 3055.695801,233.065216 
	C3086.257324,232.472397 3116.825195,232.135391 3147.392090,231.936691 
	C3157.792725,231.869049 3168.236816,232.079086 3178.592773,232.962479 
	C3197.549316,234.579498 3216.615234,235.222595 3234.926025,241.774033 
	C3248.260742,246.545044 3260.068115,253.572067 3268.843018,264.300140 
	C3277.694092,275.121185 3283.285645,288.090515 3286.049072,301.956177 
	C3292.931152,336.489624 3288.998779,371.457947 3289.965576,406.230316 
	C3289.989990,407.113098 3289.670654,408.098816 3289.231201,408.878265 
	C3288.646240,409.916107 3287.785156,410.798523 3287.042725,411.747772 
	C3288.192139,412.380249 3289.341309,413.012756 3291.531738,414.218201 
	C3291.043945,426.912476 3290.557617,440.443451 3289.987549,453.970886 
	C3289.759766,459.377197 3289.289795,464.772949 3289.029053,470.178253 
	C3288.357178,484.107452 3285.256836,497.504242 3279.967285,510.363373 
	C3274.193604,524.401001 3264.417236,535.401550 3250.898926,541.770508 
	C3240.185303,546.818237 3228.522461,550.570740 3216.878906,552.739807 
	C3202.854492,555.352356 3188.417969,555.853699 3174.134521,556.936523 
	C3165.258057,557.609497 3156.337646,557.814514 3147.432129,557.971558 
	C3121.533447,558.428406 3095.633545,558.886536 3069.731934,559.067078 
	C3059.665039,559.137268 3049.591553,558.505615 3039.523682,558.118225 
	C3032.784668,557.858948 3026.023926,557.738220 3019.318848,557.083740 
	C2998.475830,555.049500 2977.602783,552.997131 2958.623291,542.936096 
	C2943.372070,534.851440 2932.981689,522.554565 2926.932617,506.442444 
	C2922.082520,493.523560 2919.497314,480.175140 2918.995361,466.410187 
	C2918.279541,446.774200 2917.602783,427.136810 2916.909180,407.000000 
z"/>
<path fill="#FFFFFF" opacity="1.000000" stroke="none" 
	d="
M1271.780029,313.324768 
	C1275.708618,323.825500 1279.286743,334.042542 1283.089111,344.175385 
	C1289.411621,361.023956 1295.863892,377.823914 1302.287109,394.634583 
	C1310.359741,415.762024 1318.463013,436.877808 1326.534668,458.005615 
	C1327.098877,459.482361 1327.512573,461.016541 1328.098755,462.843597 
	C1254.267212,462.843597 1180.737793,462.843597 1106.722656,462.843597 
	C1111.559570,450.335541 1116.303589,438.201996 1120.946045,426.029633 
	C1127.643066,408.469971 1134.198975,390.856354 1140.941284,373.314209 
	C1146.835327,357.978882 1152.984009,342.741394 1158.875000,327.404907 
	C1166.301880,308.069550 1173.344360,288.583221 1181.005615,269.342316 
	C1186.250488,256.169708 1192.170532,243.261032 1197.975952,230.318329 
	C1201.595337,222.249344 1208.744263,218.023544 1216.881470,217.218887 
	C1223.957275,216.519150 1230.027710,220.555084 1235.062500,225.904099 
	C1242.727539,234.047302 1245.351074,244.540771 1249.195068,254.496155 
	C1256.369995,273.078094 1263.566040,291.651886 1270.737427,310.235229 
	C1271.081543,311.127045 1271.269531,312.079163 1271.780029,313.324768 
z"/>
</svg>